<?xml version="1.0" encoding="UTF-8" standalone="no"?>
<!-- Created with Inkscape (http://www.inkscape.org/) -->

<svg
   xmlns:dc="http://purl.org/dc/elements/1.1/"
   xmlns:cc="http://creativecommons.org/ns#"
   xmlns:rdf="http://www.w3.org/1999/02/22-rdf-syntax-ns#"
   xmlns:svg="http://www.w3.org/2000/svg"
   xmlns="http://www.w3.org/2000/svg"
   xmlns:sodipodi="http://sodipodi.sourceforge.net/DTD/sodipodi-0.dtd"
   xmlns:inkscape="http://www.inkscape.org/namespaces/inkscape"
   version="1.1"
   id="svg2"
   xml:space="preserve"
   width="700"
   height="700"
   viewBox="0 0 699.99999 700"
   sodipodi:docname="startup_imagesvg.svg"
   inkscape:version="0.92.3 (2405546, 2018-03-11)"><metadata
     id="metadata8"><rdf:RDF><cc:Work
         rdf:about=""><dc:format>image/svg+xml</dc:format><dc:type
           rdf:resource="http://purl.org/dc/dcmitype/StillImage" /><dc:title></dc:title></cc:Work></rdf:RDF></metadata><defs
     id="defs6" /><sodipodi:namedview
     pagecolor="#ffffff"
     bordercolor="#666666"
     borderopacity="1"
     objecttolerance="10"
     gridtolerance="10"
     guidetolerance="10"
     inkscape:pageopacity="0"
     inkscape:pageshadow="2"
     inkscape:window-width="1920"
     inkscape:window-height="1012"
     id="namedview4"
     showgrid="false"
     inkscape:zoom="0.5"
     inkscape:cx="422.32406"
     inkscape:cy="548.15092"
     inkscape:window-x="0"
     inkscape:window-y="0"
     inkscape:window-maximized="1"
     inkscape:current-layer="g14" /><g
     id="g10"
     inkscape:groupmode="layer"
     inkscape:label="ink_ext_XXXXXX"
     transform="matrix(1.3333333,0,0,-1.3333333,0,700)"><g
       id="g12"
       transform="matrix(0.08116822,0,0,0.07885449,-1593.436,-102.75975)"><g
         id="g14"
         transform="matrix(0.35183972,0,0,0.61353153,19890,1170)"><path
           d="M 16300,0 H 0 V 11099.6 H 16300 V 0"
           style="fill:#ffffff;fill-opacity:1;fill-rule:nonzero;stroke:none;opacity:0"
           id="path16"
           inkscape:connector-curvature="0" /></g><g
         id="g1060"
         transform="scale(1.5592)"><path
           d="m 16300,1098.83 c 0,-42.46 -751.6,-76.83 -1678.7,-76.83 -927.2,0 -1678.8,34.37 -1678.8,76.83 0,42.46 751.6,76.9 1678.8,76.9 927.1,0 1678.7,-34.44 1678.7,-76.9"
           style="fill:#c2d6ff;fill-opacity:1;fill-rule:nonzero;stroke:none"
           id="path1062"
           inkscape:connector-curvature="0" /></g><g
         id="g1064"
         transform="scale(1.38929)"><path
           d="m 15921.8,4645.6 c 0,0 240.9,-263.45 378.2,-660.92 0,0 -156.6,-265.24 -265.3,-330.95 -108.8,-65.72 -43.5,-192.19 -43.5,-192.19 0,0 31.9,-37.07 21.2,-40.38 -10.7,-3.31 -50.8,21.52 -55.6,36.93 0,0 31.2,-32.18 35.3,-45.64 3.7,-12.02 -40.8,3.1 -42.4,4.54 -16.2,14.61 1.6,-1.44 1.6,-1.44 0,0 4.9,-10.22 -8.5,-14.33 -13.3,-4.1 -19.3,-3.96 -28.3,25.48 -9.1,29.44 -18.8,184.77 -12.6,196.44 6.2,11.73 208.7,303.96 171.9,423.59 -36.7,119.63 -258.3,375.44 -254.1,479.38 4.2,103.87 102.1,119.49 102.1,119.49"
           style="fill:#fd5e5a;fill-opacity:1;fill-rule:nonzero;stroke:none"
           id="path1066"
           inkscape:connector-curvature="0" /></g><g
         id="g1068"
         transform="scale(1.29104)"><path
           d="m 16281.6,3850.94 c 0,0 -97.9,-313.71 -232.2,-346.63 l 73.8,-76.83 c 0,0 166,282.95 176.8,395.5 l -18.4,27.96"
           style="fill:#18287d;fill-opacity:1;fill-rule:nonzero;stroke:none"
           id="path1070"
           inkscape:connector-curvature="0" /></g><g
         id="g1072"
         transform="scale(1.29774)"><path
           d="m 16300,4486.48 c 0,0 -115.4,12.56 -166.8,0 -51.3,-12.64 -156.1,-320.86 -156.1,-320.86 l 218.4,-72.13 104.5,392.99"
           style="fill:#111f59;fill-opacity:1;fill-rule:nonzero;stroke:none"
           id="path1074"
           inkscape:connector-curvature="0" /></g><g
         id="g1076"
         transform="scale(1.29083)"><path
           d="m 16117.4,4201.39 c 0,0 -91.7,-142.23 -62.4,-261.69 29.2,-119.46 -27.8,-159.05 26.5,-191.97 54.3,-32.85 175.8,22.62 175.8,22.62 l 42.7,411.98 -182.6,19.06"
           style="fill:#18287d;fill-opacity:1;fill-rule:nonzero;stroke:none"
           id="path1078"
           inkscape:connector-curvature="0" /></g><g
         id="g1080"
         transform="scale(1.36306)"><path
           d="m 16300,5085.1 c 0,67.78 -19.6,122.74 -43.8,122.74 -2,0 -4,-0.37 -5.9,-1.1 -49.4,-9.4 -392.5,-73.81 -511.6,-73.81 -128.4,0 -439.1,74.91 -470.5,74.91 v -291.92 c 0,0 866.5,18.27 988.2,46.44 3,0.07 5.8,0.88 8.5,2.49 3.7,1.32 5.7,2.72 5.7,4.11 0,0 0,0.08 0,0.15 17.1,16.58 29.4,62.29 29.4,115.99"
           style="fill:#22346d;fill-opacity:1;fill-rule:nonzero;stroke:none"
           id="path1082"
           inkscape:connector-curvature="0" /></g><g
         id="g1084"
         transform="scale(1.28044)"><path
           d="m 16300,5388.45 c 0,-85.83 -20.9,-155.34 -46.6,-155.34 -25.8,0 -46.7,69.51 -46.7,155.34 0,85.83 20.9,155.42 46.7,155.42 25.7,0 46.6,-69.59 46.6,-155.42"
           style="fill:#653870;fill-opacity:1;fill-rule:nonzero;stroke:none"
           id="path1086"
           inkscape:connector-curvature="0" /></g><g
         id="g1088"
         transform="scale(1.35905)"><path
           d="m 16224.8,4837.72 c -6,95.14 -81.5,171 -176.6,177.11 -184.2,11.99 -461.3,27.67 -504.4,17.14 -65.4,-16.04 -223.9,-535.96 -223.9,-535.96 l 121.3,-35.24 c 0,0 91.2,-142.31 -33.4,-393.88 -124.7,-251.58 -151.8,-600.57 78.8,-639.35 230.5,-38.85 730.6,-5.96 776.9,70.42 36.5,60.19 -15.2,961.11 -38.7,1339.76"
           style="fill:#38ab01;fill-opacity:1;fill-rule:nonzero;stroke:none"
           id="path1090"
           inkscape:connector-curvature="0" /></g><g
         id="g1092"
         transform="scale(1.27952)"><path
           d="m 16272,5288.15 c -0.1,0 -0.1,0 -0.2,0 -22.1,0.78 -31.1,165.69 -6.1,155.21 10.1,-4.37 10.1,-50.96 9.2,-78.39 -0.1,-4.76 -7.7,-4.92 -7.6,0.24 1,29.31 -0.4,62.99 -4.1,70.26 -9.5,-16.1 -2.9,-130.52 9.1,-139.74 0,0.23 1.2,1.25 3,4.92 16.8,35.33 10.3,164.36 -6.3,201.95 -13.9,31.65 -22.5,-34.54 -22.5,-71.43 0,-2.11 -1.6,-3.83 -3.7,-3.83 v 0 c -2.1,0 -3.8,1.72 -3.8,3.83 0,96.76 26.4,98.55 37,74.48 17.4,-39.62 24,-170.76 6,-208.28 -1.1,-2.27 -4.4,-9.22 -10,-9.22"
           style="fill:#301f36;fill-opacity:1;fill-rule:nonzero;stroke:none"
           id="path1094"
           inkscape:connector-curvature="0" /></g><g
         id="g1096"
         transform="scale(1.3105)"><path
           d="m 16093.1,1283.09 v -16.48 l 206.9,-6.1 -6.3,32.66 -173.8,12.97 -26.8,-23.05"
           style="fill:#ecab01;fill-opacity:1;fill-rule:nonzero;stroke:none"
           id="path1098"
           inkscape:connector-curvature="0" /></g><g
         id="g1100"
         transform="scale(1.32125)"><path
           d="m 16173.5,5604.38 c 72.3,26.8 125.4,-47.98 126.5,-48.59 -2.6,2.05 -16.3,14.08 -28.2,20.67 -33.6,19.29 -65.1,17.78 -83,8.78 -1.9,-0.84 -4.5,-2.28 -4.9,-2.8 l -10.4,21.94"
           style="fill:#603e6b;fill-opacity:1;fill-rule:nonzero;stroke:none"
           id="path1102"
           inkscape:connector-curvature="0" /></g><g
         id="g1104"
         transform="scale(1.37699)"><path
           d="m 15899.9,4821.81 c 168.8,-31.74 400.1,-403.56 400.1,-403.56 l -164.9,-199.78 c 0,0 -155.2,65.5 -184.1,173.2 -28.9,107.77 -157.5,450.18 -51.1,430.14"
           style="fill:#c68a05;fill-opacity:1;fill-rule:nonzero;stroke:none"
           id="path1106"
           inkscape:connector-curvature="0" /></g><g
         id="g1108"
         transform="scale(1.38272)"><path
           d="m 15981.3,3703.94 c 15.3,-170.9 176.8,-1219.41 176.8,-1219.41 l -198.7,-1129.95 c 0,0 15.6,-46.43 118.8,-46.43 103.1,0 221.8,-82.52 221.8,-82.52 h -141.9 c -141.8,0 -301.8,0 -301.8,0 l 25.8,128.95 25.8,1057.7 -255.4,709.4 c 0,0 -131.5,312.14 -190.8,345.69 L 15345.5,3715 c 0,0 -0.1,4.7 -0.2,13.24 212.6,-6.73 422.1,-30.81 636,-24.3"
           style="fill:#fd5e5a;fill-opacity:1;fill-rule:nonzero;stroke:none"
           id="path1110"
           inkscape:connector-curvature="0" /></g><g
         id="g1112"
         transform="scale(1.31908)"><path
           d="m 16222.4,5058.83 c 0,0 -643.7,-312.49 -672.2,-902.22 0,0 237.8,-322.27 383,-421.51 145.3,-99.23 45.2,-268.97 45.2,-268.97 0,0 -47,-48.75 -32.4,-54.13 14.5,-5.38 72,25.85 79.7,46.7 0,0 -45.6,-42.15 -52.4,-60.27 -6,-16.38 56.7,1.06 59.1,2.96 23.5,18.87 -2.4,-1.9 -2.4,-1.9 0,0 -7.5,-13.72 10.7,-20.47 18.1,-6.74 26.3,-6.97 41.1,33.06 14.8,39.95 40.2,253.88 32.5,270.49 -7.6,16.6 -366.9,441.9 -306.8,604.36 60.1,162.54 488,493.22 490.2,637.19 2.3,143.88 -75.3,134.71 -75.3,134.71"
           style="fill:#fc7575;fill-opacity:1;fill-rule:nonzero;stroke:none"
           id="path1114"
           inkscape:connector-curvature="0" /></g><g
         id="g1116"
         transform="scale(1.33001)"><path
           d="m 15527.2,4562.74 265.9,-212.33 c 0,0 403.8,342.78 387.3,437.97 -16.6,95.26 119.6,249.69 -36,249.69 -194.8,0 -617.2,-475.33 -617.2,-475.33"
           style="fill:#ecab01;fill-opacity:1;fill-rule:nonzero;stroke:none"
           id="path1118"
           inkscape:connector-curvature="0" /></g><g
         id="g1120"
         transform="scale(1.37436)"><path
           d="m 16026.3,3787.81 52.2,-61.34 221.5,-1149.12 -373.2,-85.34 -243.6,838.13 107.3,457.67 h 235.8"
           style="fill:#555699;fill-opacity:1;fill-rule:nonzero;stroke:none"
           id="path1122"
           inkscape:connector-curvature="0" /></g><g
         id="g1124"
         transform="scale(1.34289)"><path
           d="m 16245.1,3525.01 c 0,0 -226.7,-679.95 -226.7,-860.61 0,-180.58 -143.4,-1269.65 -143.4,-1269.65 l 28.8,-148.93 -58.6,-3.5 -130.2,9.83 c 0,0 78.6,179.76 78.6,254.15 0,74.4 0,1051.92 0,1051.92 l 7,1266.96 h 499.4 l -54.9,-300.17"
           style="fill:#fc7575;fill-opacity:1;fill-rule:nonzero;stroke:none"
           id="path1126"
           inkscape:connector-curvature="0" /></g><g
         id="g1128"
         transform="scale(1.34555)"><path
           d="m 16300,3868.9 -74.4,-499.65 -161.6,-823.9 h -392.7 l 97.8,1285.87 530.9,37.68"
           style="fill:#6265a8;fill-opacity:1;fill-rule:nonzero;stroke:none"
           id="path1130"
           inkscape:connector-curvature="0" /></g><g
         id="g1132"
         transform="scale(1.3594)"><path
           d="m 16270.7,3839.93 c 3.3,198.99 12.2,819.63 -1.1,896.58 -33.7,196.99 -483,302.04 -623.6,90.62 -51,-76.57 -59.8,-174.63 -55.1,-264.23 10.6,-200.09 43.1,-165.22 22.8,-555.54 -0.8,-16.04 -60.3,-378.04 -60.3,-378.04 0,0 535.3,-99.3 746.6,-42.59 l -29.3,253.2"
           style="fill:#ecab01;fill-opacity:1;fill-rule:nonzero;stroke:none"
           id="path1134"
           inkscape:connector-curvature="0" /></g><g
         id="g1136"
         transform="scale(1.35749)"><path
           d="m 16298.3,4214.02 c 1.1,121.33 1.7,247.3 0.8,346.67 -288.9,109.1 -566.1,29.91 -684.8,-15.54 8.9,-132.3 27.9,-154.62 27.9,-322.14 188,57.17 557.5,6.19 656.1,-8.99"
           style="fill:#ffcb57;fill-opacity:1;fill-rule:nonzero;stroke:none"
           id="path1138"
           inkscape:connector-curvature="0" /></g><g
         id="g1140"
         transform="scale(1.34319)"><path
           d="m 16300,5121.61 c 0,0 -46.5,-204.51 -39.8,-261.61 6.6,-57.03 -131.5,-71.7 -181.9,-34.47 -50.5,37.15 -39.7,118.15 -21.9,156.64 17.9,38.56 63.1,337.85 63.1,337.85 l 180.5,-198.41"
           style="fill:#fc7575;fill-opacity:1;fill-rule:nonzero;stroke:none"
           id="path1142"
           inkscape:connector-curvature="0" /></g><g
         id="g1144"
         transform="scale(1.34319)"><path
           d="m 16119.5,5320.02 c 0,0 3.9,-26.72 -4,-75.64 28.2,-45.94 49.7,-99.61 76.9,-128.35 30.4,-31.94 64.6,-42.88 97.7,-40.2 5.7,27.32 9.9,45.78 9.9,45.78 l -180.5,198.41"
           style="fill:#fd5e5a;fill-opacity:1;fill-rule:nonzero;stroke:none"
           id="path1146"
           inkscape:connector-curvature="0" /></g><g
         id="g1148"
         transform="scale(1.3618)"><path
           d="m 16243.3,3946.7 c 47.7,72.69 53.2,178.22 51.2,202.16 5.5,215.59 -17.6,957.85 -213.4,1049.2 l 12.6,-112.21 c 157.8,-97 147.3,-750.18 140.9,-935.16 -0.9,-106.4 8.7,-203.99 8.7,-203.99"
           style="fill:#0f1d5b;fill-opacity:1;fill-rule:nonzero;stroke:none"
           id="path1150"
           inkscape:connector-curvature="0" /></g><g
         id="g1152"
         transform="scale(1.35512)"><path
           d="m 16181.6,5580.63 c 0,0 44.7,-18.45 68.4,-110.55 23.7,-92.17 50,-310.6 0,-360.63 -50,-50.03 -134.3,-78.96 -200.1,-13.14 -65.7,65.75 -152.6,218.44 -171,268.47 0,0 -47.4,72.39 56.6,148.7 103.9,76.37 246.1,67.15 246.1,67.15"
           style="fill:#fc7575;fill-opacity:1;fill-rule:nonzero;stroke:none"
           id="path1154"
           inkscape:connector-curvature="0" /></g><g
         id="g1156"
         transform="scale(1.36496)"><path
           d="m 15902.8,5459.34 c 0,0 120.2,-11.72 146.4,-11.72 26.1,0 78.3,-33.99 146.3,-15.68 67.9,18.24 104.5,88.8 104.5,114.95 l -66.6,30.04 c 0,0 9.8,-25.5 -14.4,-49.6 -24.1,-24.18 -47.1,-19.63 -47.1,-19.63 0,0 44.5,16.99 44.5,43.15 l -62.7,26.08 c 0,0 -4,-47.04 -31.4,-47.04 0,0 1.4,0 -11.8,27.48 -13,27.4 -81.6,48.35 -153.1,33.92 -71.5,-14.36 -96.4,-58.76 -127.7,-73.12 -31.4,-14.36 -59.9,-23 -76.1,-39.19 -16.2,-16.27 -6.3,-73.19 -6.3,-73.19 0,0 -79.7,-17 -65.3,-82.35 14.4,-65.35 127.7,-121.25 143.3,-169.6 15.7,-48.35 -25,-85.2 -25,-85.2 0,0 65.9,13.04 65.9,76.41 0,63.44 -60.1,171.87 -35.3,181.03 24.8,9.16 43.2,-15.68 52.3,52.23 9.2,67.99 19.6,81.03 19.6,81.03"
           style="fill:#603e6b;fill-opacity:1;fill-rule:nonzero;stroke:none"
           id="path1158"
           inkscape:connector-curvature="0" /></g><g
         id="g1160"
         transform="scale(1.3308)"><path
           d="m 16297.4,5427.87 c 0,5.34 2.6,62.97 -41.6,62.97 -44.2,0 -54.9,-75.29 -20.1,-116.62 34.8,-41.25 61.7,17.43 61.7,53.65"
           style="fill:#fc7575;fill-opacity:1;fill-rule:nonzero;stroke:none"
           id="path1162"
           inkscape:connector-curvature="0" /></g><g
         id="g1164"
         transform="scale(1.32998)"><path
           d="m 16296.2,5437.97 c -0.5,11.8 -7.4,52.33 -38.1,31.73 -30.6,-20.53 -8.1,-97.97 16.9,-81.13 25,16.77 21.9,35.71 21.2,49.4"
           style="fill:#fd5e5a;fill-opacity:1;fill-rule:nonzero;stroke:none"
           id="path1166"
           inkscape:connector-curvature="0" /></g><g
         id="g1168"
         transform="scale(1.38272)"><path
           d="m 15847.1,1225.63 h 452.9 l -6.9,-19.09 h -446 v 19.09"
           style="fill:#ecab01;fill-opacity:1;fill-rule:nonzero;stroke:none"
           id="path1170"
           inkscape:connector-curvature="0" /></g><g
         id="g1172"
         transform="scale(1.37415)"><path
           d="m 16173.8,1340.39 c -6.7,-6.62 0,-107.12 0,-107.12 h 115.6 l 10.6,68.99 -126.2,38.13"
           style="fill:#38ab01;fill-opacity:1;fill-rule:nonzero;stroke:none"
           id="path1174"
           inkscape:connector-curvature="0" /></g><g
         id="g1176"
         transform="scale(1.31025)"><path
           d="m 16096.2,1283.34 c 0,0 146,51.29 203.8,-6.49 l -18.7,96.7 c 0,0 -50.6,45.11 -157.4,-0.91 l -27.7,-89.3"
           style="fill:#38ab01;fill-opacity:1;fill-rule:nonzero;stroke:none"
           id="path1178"
           inkscape:connector-curvature="0" /></g><g
         id="g1180"
         transform="scale(1.35001)"><path
           d="m 16289,5271.43 h 0.1 z m -41.4,-9.18 c -2,8.96 12.5,6.67 35.9,13.41 -3.1,32.37 -35.4,129.55 -35.7,130.59 -2.2,6.74 7.9,10.14 10.1,3.41 42.1,-125.78 35.9,-140.08 36.5,-142.52 -32.5,-5.48 -44.7,-14.15 -46.8,-4.89"
           style="fill:#2846a6;fill-opacity:1;fill-rule:nonzero;stroke:none"
           id="path1182"
           inkscape:connector-curvature="0" /></g><g
         id="g1184"
         transform="scale(1.34955)"><path
           d="m 16198.6,5218.27 c 2.7,0 59,-10.67 101.4,2.67 l -9.3,-8.22 -2.3,-28.38 c 0,0 -43.8,0.44 -62.5,8.96 -18.8,8.45 -27.3,24.97 -27.3,24.97"
           style="fill:#ffffff;fill-opacity:1;fill-rule:nonzero;stroke:none"
           id="path1186"
           inkscape:connector-curvature="0" /></g><g
         id="g1188"
         transform="scale(1.34293)"><path
           d="m 16218.3,5484.07 v -13.41 c 15.4,8.05 81.7,2.98 81.7,2.98 -19.6,11.17 -57.6,11.32 -81.7,10.43"
           style="fill:#2846a6;fill-opacity:1;fill-rule:nonzero;stroke:none"
           id="path1190"
           inkscape:connector-curvature="0" /></g><g
         id="g1192"
         transform="scale(1.35136)"><path
           d="m 16295,5470.11 5,-12.35 c -14.2,2.88 -60.4,-21.24 -60.4,-21.24 10.1,16.05 37.5,27.3 55.4,33.59"
           style="fill:#2846a6;fill-opacity:1;fill-rule:nonzero;stroke:none"
           id="path1194"
           inkscape:connector-curvature="0" /></g><g
         id="g1196"
         transform="scale(1.34205)"><path
           d="m 16282.8,5390.34 c -7.2,0 -13,10.21 -13,22.87 0,12.67 5.8,22.96 13,22.96 17.2,0 17.2,-45.83 0,-45.83"
           style="fill:#2846a6;fill-opacity:1;fill-rule:nonzero;stroke:none"
           id="path1198"
           inkscape:connector-curvature="0" /></g><g
         id="g1200"
         transform="scale(1.35188)"><path
           d="m 16282.9,5373.84 c -17.1,0 -17.1,45.49 0,45.49 17.1,0 17.1,-45.49 0,-45.49"
           style="fill:#2846a6;fill-opacity:1;fill-rule:nonzero;stroke:none"
           id="path1202"
           inkscape:connector-curvature="0" /></g><g
         id="g1204"
         transform="scale(1.31853)"><path
           d="m 16128.3,5325.03 c 78.6,0 170.9,-57.64 171.2,-239.13 0.5,-222.82 -40.8,-988.6 -245.1,-1078.4 l 15.6,115.59 c 165.3,96.47 169.9,771.08 167.5,962.36 1.6,109.89 -94.5,226.23 -202,250.96 l 92.8,-11.38"
           style="fill:#0f1d5b;fill-opacity:1;fill-rule:nonzero;stroke:none"
           id="path1206"
           inkscape:connector-curvature="0" /></g><g
         id="g1208"
         transform="scale(1.27961)"><path
           d="m 16291.6,3143.15 c -0.7,0 -1.3,0.08 -1.9,0.24 -245.3,65.49 -375.5,244.76 -441.6,383.63 -71.3,150.04 -85.1,286.73 -85.2,288.13 -0.4,4.15 2.6,7.82 6.8,8.21 4.1,0.47 7.9,-2.66 8.3,-6.8 0,-1.33 13.6,-135.74 84,-283.52 64.7,-135.82 192,-311.11 431.6,-375.04 4,-1.09 6.4,-5.24 5.3,-9.22 -0.9,-3.36 -4,-5.63 -7.3,-5.63"
           style="fill:#0f1d5b;fill-opacity:1;fill-rule:nonzero;stroke:none"
           id="path1210"
           inkscape:connector-curvature="0" /></g><g
         id="g1212"
         transform="scale(1.50385)"><path
           d="m 16164.6,2042.29 c 0.1,0.4 0.1,0.73 0.2,1.13 l 135,943.57 c 0.2,1.53 0.1,3.06 -0.2,4.59 l -86.6,369.99 c -174.3,-13.5 -348.5,-16.16 -522.7,-16.56 -52.4,-123.69 -119.4,-290.65 -119.4,-336.07 0,-70.49 95.1,-778.14 109.3,-837.72 0.8,-3.25 0.2,-6.58 -1.5,-9.44 -6.2,-10.17 -20.6,-38.3 -20.6,-78.8 0,-42.29 74.4,-538.95 101.2,-716.49 22.6,0 45.2,0.07 67.9,0.2 9.8,204.67 41,834.79 73.8,1434.05 0.4,7.05 6.5,12.44 13.7,11.9 l 20.8,-1.39 c 6.4,-0.4 11.5,-5.52 11.9,-11.84 47.9,-769.82 49.4,-728.99 38.5,-735.18 -9.2,-5.12 -24.8,-18.95 -30.8,-54.32 -7,-41.36 -13,-472.99 -15.2,-642.55 21.8,0.2 43.5,0.39 65.3,0.66 38.7,180.87 155,656.25 159.4,674.27"
           style="fill:#6077bd;fill-opacity:1;fill-rule:nonzero;stroke:none"
           id="path1214"
           inkscape:connector-curvature="0" /></g><g
         id="g1216"
         transform="scale(1.4396)"><path
           d="m 16298.1,4460.84 c 1.9,-50.92 -12.5,-112.81 -59.2,-135.11 l -13.1,31.33 c 39.7,7.36 60.4,64.46 66.6,103.71 l 5.7,0.07"
           style="fill:#172866;fill-opacity:1;fill-rule:nonzero;stroke:none"
           id="path1218"
           inkscape:connector-curvature="0" /></g><g
         id="g1220"
         transform="scale(1.44178)"><path
           d="m 16279.9,4446.94 c -18.3,-12.49 -152.6,-113.06 -152.6,-113.06 l -12.6,22.47 92.8,61.18 -101.5,-46.47 -4.6,50.91 108.3,10.33 c 1.9,15.68 -109.2,6.94 -109.2,6.94 l 26.2,71.16 c 23,-35.44 112.7,-64.16 168.7,-42.79 0.4,-1.6 4.3,-3.54 4.6,-5.28 -4.7,-0.55 -15,-11.86 -20.1,-15.39"
           style="fill:#2846a6;fill-opacity:1;fill-rule:nonzero;stroke:none"
           id="path1222"
           inkscape:connector-curvature="0" /></g><g
         id="g1224"
         transform="scale(1.48735)"><path
           d="m 16250.6,4712.68 c 21.4,127.81 -103.2,176.35 -145.7,189.13 -8.6,2.55 -13.9,3.69 -13.9,3.69 -76,10.02 -115.3,-40.67 -149.6,-93.05 -34.2,-52.31 -9,-77.52 -18,-124.25 -9,-46.72 -43.3,-12.84 -63.1,-66.15 -19.9,-53.32 30.7,-62.19 16.2,-95.95 -14.4,-33.81 -64.1,-94.32 -64.1,-139.57 0,-32.48 -15.8,-37.11 -16.6,-48.34 1.6,-0.2 9,-8.75 10.6,-9.08 3.2,9.82 23.8,18.69 31.3,26.22 48.4,48.34 177.2,22.32 177.2,81.96 0,59.63 131.3,102.73 208.2,140.65 76.9,37.92 27.5,134.74 27.5,134.74"
           style="fill:#2846a6;fill-opacity:1;fill-rule:nonzero;stroke:none"
           id="path1226"
           inkscape:connector-curvature="0" /></g><g
         id="g1228"
         transform="scale(1.48735)"><path
           d="m 16250.6,4712.68 c 21.4,127.81 -103.2,176.35 -145.7,189.13 -8.6,2.55 -13.9,3.69 -13.9,3.69 -8.5,1.08 -16.5,1.48 -24.1,1.15 37,-29.11 83.1,-77.93 99.3,-148.79 28.8,-125.8 -101.5,-223.22 -162.2,-244.86 -60.7,-21.66 -25.7,-61.39 -53.6,-89.36 -26.8,-26.83 -124.7,1.48 -144.4,-85.45 0.1,-3.7 5.8,-8.68 5.8,-8.68 2.7,13.38 16.2,16.07 25.9,25.82 48.4,48.34 177.2,22.32 177.2,81.96 0,59.63 131.3,102.73 208.2,140.65 76.9,37.92 27.5,134.74 27.5,134.74"
           style="fill:#18287d;fill-opacity:1;fill-rule:nonzero;stroke:none"
           id="path1230"
           inkscape:connector-curvature="0" /></g><g
         id="g1232"
         transform="scale(1.4431)"><path
           d="m 16273,4486.16 c 0,0 -16.9,-18.92 -21.9,-29.24 -3.1,-6.44 1.6,-23.21 8.5,-17.81 6.9,5.34 33.6,16.98 37,23.15 3.4,6.09 -7.5,37.62 -23.6,23.9"
           style="fill:#f9b406;fill-opacity:1;fill-rule:nonzero;stroke:none"
           id="path1234"
           inkscape:connector-curvature="0" /></g><g
         id="g1236"
         transform="scale(1.46231)"><path
           d="m 16184.4,1218 5,-23.25 c 0,0 82.9,-33.37 107.2,-26.8 l 3.4,15.24 -115.6,34.81"
           style="fill:#0f1d5b;fill-opacity:1;fill-rule:nonzero;stroke:none"
           id="path1238"
           inkscape:connector-curvature="0" /></g><g
         id="g1240"
         transform="scale(1.48777)"><path
           d="m 16095.5,1219.41 6.4,-18.82 198.1,-13.84 v 12.83 l -204.5,19.83"
           style="fill:#0f1d5b;fill-opacity:1;fill-rule:nonzero;stroke:none"
           id="path1242"
           inkscape:connector-curvature="0" /></g><g
         id="g1244"
         transform="scale(1.48769)"><path
           d="m 15963,4543.76 c 0,0 -4.9,22.59 -27.8,68.43 -22.9,45.78 -91.6,76.7 -72,147.95 19.6,71.25 85.1,56.26 108,112.05 22.9,55.73 198.8,32 243.8,-12.97 44.9,-44.97 45.7,-154.13 65.4,-216.11 19.6,-62.04 -73.6,-114.33 -116.2,-114.33 -42.5,0 -201.2,14.98 -201.2,14.98"
           style="fill:#18287d;fill-opacity:1;fill-rule:nonzero;stroke:none"
           id="path1246"
           inkscape:connector-curvature="0" /></g><g
         id="g1248"
         transform="scale(1.5106)"><path
           d="m 16300,3890.92 c 0,8.01 -62.4,236.92 -152.1,302.73 -89.6,65.73 -153.9,77.38 -153.9,77.38 l 140.4,-473.06 52.4,-92.01 113.2,184.96"
           style="fill:#498bea;fill-opacity:1;fill-rule:nonzero;stroke:none"
           id="path1250"
           inkscape:connector-curvature="0" /></g><g
         id="g1252"
         transform="scale(1.46246)"><path
           d="m 16214.6,1343.83 c 0.3,-2.19 0.1,-4.31 -0.7,-6.36 -5.8,-15.52 -31.7,-86.36 -31.7,-117.74 0,-26.33 64.5,-37.41 98.4,-44.11 9.2,-1.84 19.4,0.69 17.6,9.78 -8.1,40.34 -26.2,133.2 -26.2,149.27 0,1.98 1.1,27.22 3.2,70.7 -23.3,-0.13 -46.6,-0.2 -69.9,-0.2 4.8,-31.46 8.1,-53.47 9.3,-61.34"
           style="fill:#fc7575;fill-opacity:1;fill-rule:nonzero;stroke:none"
           id="path1254"
           inkscape:connector-curvature="0" /></g><g
         id="g1256"
         transform="scale(1.50385)"><path
           d="m 16164.6,2042.29 c 0.1,0.4 0.1,0.73 0.2,1.13 l 135,943.57 c 0.2,1.53 0.1,3.06 -0.2,4.59 l -86.6,369.99 c -174.3,-13.5 -348.5,-16.16 -522.7,-16.56 -52.4,-123.69 -119.4,-290.65 -119.4,-336.07 0,-70.49 95.1,-778.14 109.3,-837.72 0.8,-3.25 0.2,-6.58 -1.5,-9.44 -6.2,-10.17 -20.6,-38.3 -20.6,-78.8 0,-42.29 74.4,-538.95 101.2,-716.49 22.6,0 45.2,0.07 67.9,0.2 9.8,204.67 41,834.79 73.8,1434.05 0.4,7.05 6.5,12.44 13.7,11.9 l 20.8,-1.39 c 6.4,-0.4 11.5,-5.52 11.9,-11.84 47.9,-769.82 49.4,-728.99 38.5,-735.18 -9.2,-5.12 -24.8,-18.95 -30.8,-54.32 -7,-41.36 -13,-472.99 -15.2,-642.55 21.8,0.2 43.5,0.39 65.3,0.66 38.7,180.87 155,656.25 159.4,674.27"
           style="fill:#6077bd;fill-opacity:1;fill-rule:nonzero;stroke:none"
           id="path1258"
           inkscape:connector-curvature="0" /></g><g
         id="g1260"
         transform="scale(1.50385)"><path
           d="m 16164.6,2042.29 c 0.1,0.4 0.1,0.73 0.2,1.13 l 135,943.57 c 0.2,1.53 0.1,3.06 -0.2,4.59 l -86.6,369.99 c -174.3,-13.5 -348.5,-16.16 -522.7,-16.56 -5.9,-13.7 -11.8,-27.93 -17.9,-42.49 156.1,-33.85 442.6,-129.6 495.1,-381.29 72.9,-349.23 -34.1,-1007.21 -34.2,-1007.61 17.5,72.41 29.9,123.02 31.3,128.67"
           style="fill:#5971ad;fill-opacity:1;fill-rule:nonzero;stroke:none"
           id="path1262"
           inkscape:connector-curvature="0" /></g><g
         id="g1264"
         transform="scale(1.48833)"><path
           d="m 16287.3,1214.59 c -55.8,20.42 -133.2,57.44 -127.5,104.07 1.3,10.29 5.7,32.86 12.3,63.63 -21.9,-0.27 -43.9,-0.47 -65.9,-0.67 -0.4,-36.75 -0.7,-61.61 -0.8,-67.39 0,-0.88 -0.1,-1.75 -0.3,-2.62 -2.3,-10.08 -17.4,-76.87 -17.4,-94.27 0,-18.81 42.4,-4.57 72.1,-13.03 36.3,-10.28 132,-10.48 124.5,-10.28 13.5,1.61 15.7,15.92 3,20.56"
           style="fill:#fc7575;fill-opacity:1;fill-rule:nonzero;stroke:none"
           id="path1266"
           inkscape:connector-curvature="0" /></g><g
         id="g1268"
         transform="scale(1.50229)"><path
           d="m 16300,3143.59 -87.9,625.24 c 11.7,100.65 29.3,123.15 0.6,270.52 -19.1,98.52 -48.8,204.89 -74.2,229.92 -47.2,46.46 -204.6,31.62 -219.3,30.09 -0.7,-0.07 -1.4,-0.07 -2.1,0 -17.8,1.19 -253,13.44 -365.2,-152.1 -53.1,-78.48 -111.7,-186.05 -162.8,-296.35 57.5,-42.6 143.9,-79.21 188.4,-134.8 54.6,112.83 75.5,177.2 111.4,158.7 41.4,-21.3 -111.1,-592.5 -101.9,-699.73 149.8,12.11 565.5,-3.73 713,-31.49"
           style="fill:#653870;fill-opacity:1;fill-rule:nonzero;stroke:none"
           id="path1270"
           inkscape:connector-curvature="0" /></g><g
         id="g1272"
         transform="scale(1.50229)"><path
           d="m 16300,3143.59 -87.9,625.24 c 11.7,100.65 29.3,123.15 0.6,270.52 -19.1,98.52 -48.8,204.89 -74.2,229.92 -47.2,46.46 -204.6,31.62 -219.3,30.09 -0.7,-0.07 -1.4,-0.07 -2.1,0 -11,0.73 -105.3,5.72 -202.1,-29.89 70,-72.69 198.2,-224.06 266.8,-417.96 81.2,-229.52 -68,-567.67 -120.2,-674.37 165.9,-4.59 350.1,-16.91 438.4,-33.55"
           style="fill:#522b5b;fill-opacity:1;fill-rule:nonzero;stroke:none"
           id="path1274"
           inkscape:connector-curvature="0" /></g><g
         id="g1276"
         transform="scale(1.47519)"><path
           d="m 16117.7,4562.4 c 0,-21.9 3.2,-217.61 30.8,-288.58 27.5,-71.04 120.6,-27.93 136,-9.62 15.5,18.3 13,298.2 13,298.2 h -179.8"
           style="fill:#fc7575;fill-opacity:1;fill-rule:nonzero;stroke:none"
           id="path1278"
           inkscape:connector-curvature="0" /></g><g
         id="g1280"
         transform="scale(1.47525)"><path
           d="m 16120.6,4460 c 13.4,-12.4 29.7,-23.58 49.8,-33.01 43.9,-20.6 95.1,-10.03 126.1,15.05 3.5,62.77 0.4,120.19 0.4,120.19 h -179.8 c 0,-9.49 0.6,-51.72 3.5,-102.23"
           style="fill:#fd5e5a;fill-opacity:1;fill-rule:nonzero;stroke:none"
           id="path1282"
           inkscape:connector-curvature="0" /></g><g
         id="g1284"
         transform="scale(1.45855)"><path
           d="m 16282.5,4739.65 c 0,0 -31.8,61.5 -46.4,33.94 -14.6,-27.43 20.3,-128.28 42.1,-106.48 21.8,21.81 4.3,72.54 4.3,72.54"
           style="fill:#fd5e5a;fill-opacity:1;fill-rule:nonzero;stroke:none"
           id="path1286"
           inkscape:connector-curvature="0" /></g><g
         id="g1288"
         transform="scale(1.48438)"><path
           d="m 16238.4,4680.2 c 0,0 30.5,63.12 46,35.71 15.6,-27.42 -16.7,-130.5 -39.5,-109.07 -22.7,21.42 -6.5,73.36 -6.5,73.36"
           style="fill:#fd5e5a;fill-opacity:1;fill-rule:nonzero;stroke:none"
           id="path1290"
           inkscape:connector-curvature="0" /></g><g
         id="g1292"
         transform="scale(1.48276)"><path
           d="m 16058.8,4842.79 c 0,0 -62.4,-24.88 -62.4,-88.89 0,-64 18,-73.85 9.8,-123.08 -8.2,-49.3 -18.1,-142.84 93.6,-187.15 111.6,-44.31 185.4,93.54 185.4,149.39 0,55.77 -14.7,49.23 0,109.92 14.8,60.77 -75.4,220.4 -226.4,139.81"
           style="fill:#fc7575;fill-opacity:1;fill-rule:nonzero;stroke:none"
           id="path1294"
           inkscape:connector-curvature="0" /></g><g
         id="g1296"
         transform="scale(1.47395)"><path
           d="m 16285.1,4916.04 c 0,0 14.9,-80.87 -59.4,-120.5 -74.3,-39.62 -158.4,-101.02 -166.6,-163.77 -8.3,-62.76 13.1,-45.66 13.1,-45.66 l -6.7,-29.99 c 0,0 -19.8,-24.76 -41.2,44.57 -21.5,69.34 33,123.82 33,123.82 0,0 34.7,79.72 54.5,143.09 19.8,63.3 173.3,48.44 173.3,48.44"
           style="fill:#555699;fill-opacity:1;fill-rule:nonzero;stroke:none"
           id="path1298"
           inkscape:connector-curvature="0" /></g><g
         id="g1300"
         transform="scale(1.485)"><path
           d="m 16164,4879.46 c -11.1,-3.43 -11.5,-65.52 22.9,-99.93 34.4,-34.41 85.3,-170.78 85.3,-261.62 0,-90.77 -45.9,-145.72 -45.9,-145.72 l 27.8,-12.26 c 0,0 45.9,120.27 45.9,192.06 0,71.85 -35.6,358.58 -136,327.47"
           style="fill:#555699;fill-opacity:1;fill-rule:nonzero;stroke:none"
           id="path1302"
           inkscape:connector-curvature="0" /></g><g
         id="g1304"
         transform="scale(1.54809)"><path
           d="m 16300,4267.27 c 0,0 -5.9,47.74 -23.3,58.98 -17.5,11.17 -33.1,-20.87 -33.1,-20.87 0,0 -12.5,6.59 -25.8,-3.55 -13.2,-10.21 -6,-15.89 -20.4,-17.64 -14.3,-1.68 -15.8,6.01 -23,-1.8 -7.1,-7.82 31.5,-86.56 30.1,-132.56 -1.5,-45.99 -192.3,-225.43 -255.1,-293.71 -62.8,-68.28 -183.4,-196.76 -150.3,-245.08 33,-48.32 247.2,103.74 371.8,295.01 124.6,191.2 129.1,361.22 129.1,361.22"
           style="fill:#f98a8a;fill-opacity:1;fill-rule:nonzero;stroke:none"
           id="path1306"
           inkscape:connector-curvature="0" /></g><g
         id="g1308"
         transform="scale(1.4792)"><path
           d="m 16204.1,4373.52 c 0,0 55.7,1.56 75.8,-15.14 20.1,-16.63 -8.8,-38.6 -8.8,-38.6 0,0 12.8,-12.24 7.3,-27.99 -5.6,-15.75 -15.2,-8.99 -10.8,-24.61 4.4,-15.55 13.5,-15.89 8,-24.81 -5.6,-8.92 -110.2,19.4 -160.8,10.28 -50.7,-9.13 -167.7,-241.62 -216.5,-319.64 -48.8,-77.94 -139.5,-227.35 -207.8,-200.11 -68.3,27.25 8,280.16 167,444.1 159,164.01 346.6,196.52 346.6,196.52"
           style="fill:#f98a8a;fill-opacity:1;fill-rule:nonzero;stroke:none"
           id="path1310"
           inkscape:connector-curvature="0" /></g><g
         id="g1312"
         transform="scale(1.46179)"><path
           d="m 16299.9,1233.83 0.1,10.47 c -38.5,-10.75 -86.2,13.27 -105.3,24.28 l -1.1,-10.94 c 17.6,-10.06 50.9,-26.27 85.5,-26.27 7.7,0 13.2,0.47 20.8,2.46"
           style="fill:#2d1e66;fill-opacity:1;fill-rule:nonzero;stroke:none"
           id="path1314"
           inkscape:connector-curvature="0" /></g><g
         id="g1316"
         transform="scale(1.45939)"><path
           d="m 16294.7,1206.53 c -2.4,0 -4.6,1.71 -4.9,4.18 l -3.7,23.36 c -0.5,2.75 1.4,5.28 4.1,5.69 2.7,0.48 5.2,-1.44 5.6,-4.11 l 3.8,-23.36 c 0.4,-2.75 -1.5,-5.28 -4.1,-5.69 -0.3,-0.07 -0.6,-0.07 -0.8,-0.07"
           style="fill:#2d1e66;fill-opacity:1;fill-rule:nonzero;stroke:none"
           id="path1318"
           inkscape:connector-curvature="0" /></g><g
         id="g1320"
         transform="scale(1.48441)"><path
           d="m 16265,1198.72 h -9.7 c 0,19.74 30.7,36.99 34.9,39.35 l 9.8,-5.93 c -13.9,-7.68 -35,-22.84 -35,-33.42"
           style="fill:#2d1e66;fill-opacity:1;fill-rule:nonzero;stroke:none"
           id="path1322"
           inkscape:connector-curvature="0" /></g><g
         id="g1324"
         transform="scale(1.472)"><path
           d="m 16239.8,4632.2 c 0,0 23.8,23.23 34,18.48 10.1,-4.76 26.2,-26.22 26.2,-26.22 0,0 -21.5,18.47 -30.1,18.47 -8.7,0 -30.1,-10.73 -30.1,-10.73"
           style="fill:#2846a6;fill-opacity:1;fill-rule:nonzero;stroke:none"
           id="path1326"
           inkscape:connector-curvature="0" /></g><g
         id="g1328"
         transform="scale(1.52101)"><path
           d="m 15623,3986.03 h 622 l 55,-381.13 -570.3,22.22 -106.7,358.91"
           style="fill:#c0b4fe;fill-opacity:1;fill-rule:nonzero;stroke:none"
           id="path1330"
           inkscape:connector-curvature="0" /></g><g
         id="g1332"
         transform="scale(1.52462)"><path
           d="m 15586,3976.6 53.7,-45.72 h 660.3 l -93.4,45.72 H 15586"
           style="fill:#6077bd;fill-opacity:1;fill-rule:nonzero;stroke:none"
           id="path1334"
           inkscape:connector-curvature="0" /></g><g
         id="g1336"
         transform="scale(1.55254)"><path
           d="m 15652.2,4487.1 -293.8,-626.91 h 648.5 l 293.1,665.81 -647.8,-38.9"
           style="fill:#e3e4ff;fill-opacity:1;fill-rule:nonzero;stroke:none"
           id="path1338"
           inkscape:connector-curvature="0" /></g><g
         id="g1340"
         transform="scale(1.4792)"><path
           d="m 16204.1,4373.52 c 0,0 55.7,1.56 75.8,-15.14 20.1,-16.63 -8.8,-38.6 -8.8,-38.6 0,0 12.8,-12.24 7.3,-27.99 -5.6,-15.75 -15.2,-8.99 -10.8,-24.61 4.4,-15.55 13.5,-15.89 8,-24.81 -5.6,-8.92 -110.2,19.4 -160.8,10.28 -50.7,-9.13 -167.7,-241.62 -216.5,-319.64 -48.8,-77.94 -139.5,-227.35 -207.8,-200.11 -68.3,27.25 8,280.16 167,444.1 159,164.01 346.6,196.52 346.6,196.52"
           style="fill:#f98a8a;fill-opacity:1;fill-rule:nonzero;stroke:none"
           id="path1342"
           inkscape:connector-curvature="0" /></g><g
         id="g1344"
         transform="scale(1.55254)"><path
           d="m 15652.2,4487.1 -293.8,-626.91 h 648.5 l 293.1,665.81 -647.8,-38.9"
           style="fill:#e3e4ff;fill-opacity:1;fill-rule:nonzero;stroke:none"
           id="path1346"
           inkscape:connector-curvature="0" /></g><g
         id="g1348"
         transform="scale(1.4792)"><path
           d="m 16275.6,4242.37 c 5.5,8.92 0.3,9.26 -4.1,24.81 -4.4,15.62 1.3,8.86 6.9,24.61 5.5,15.75 -7.3,27.99 -7.3,27.99 0,0 28.9,21.97 8.8,38.6 -3.4,2.84 -7.8,5.21 -12.9,7.03 l -55.2,-117.76 c 33.3,-4.87 61,-9.74 63.8,-5.28"
           style="fill:#f98a8a;fill-opacity:1;fill-rule:nonzero;stroke:none"
           id="path1350"
           inkscape:connector-curvature="0" /></g><g
         id="g1352"
         transform="scale(1.5468)"><path
           d="m 16285.4,4333.19 c -21,14.61 -34.2,-18.36 -34.2,-18.36 0,0 -14.9,8.92 -28.3,-0.38 -13.3,-9.38 -4.6,-16.62 -20.4,-16.56 -15.8,0.13 -18.5,8.67 -25.5,1.1 -6.6,-7.17 32,-85.46 40.7,-136.73 l 82.3,155.8 c -4.1,6.73 -9.6,11.58 -14.6,15.13"
           style="fill:#f98a8a;fill-opacity:1;fill-rule:nonzero;stroke:none"
           id="path1354"
           inkscape:connector-curvature="0" /></g><g
         id="g1356"
         transform="scale(1.46282)"><path
           d="m 16300,4721.15 c 0,-9.91 -4.3,-17.98 -9.6,-17.98 -5.3,0 -9.6,8.07 -9.6,17.98 0,9.98 4.3,17.98 9.6,17.98 5.3,0 9.6,-8 9.6,-17.98"
           style="fill:#2846a6;fill-opacity:1;fill-rule:nonzero;stroke:none"
           id="path1358"
           inkscape:connector-curvature="0" /></g><g
         id="g1360"
         transform="scale(1.47508)"><path
           d="m 16300,4679.27 c 0,-9.83 -4.3,-17.83 -9.5,-17.83 -5.3,0 -9.5,8 -9.5,17.83 0,9.83 4.2,17.83 9.5,17.83 5.2,0 9.5,-8 9.5,-17.83"
           style="fill:#2846a6;fill-opacity:1;fill-rule:nonzero;stroke:none"
           id="path1362"
           inkscape:connector-curvature="0" /></g><g
         id="g1364"
         transform="scale(1.46464)"><path
           d="m 16300,4745.52 c 0,0 -9.6,34.62 -33,27.18 -23.5,-7.45 -28.9,-22.4 -19.2,-22.4 9.5,0 21.3,12.29 31.9,9.35 10.7,-2.93 20.3,-14.13 20.3,-14.13"
           style="fill:#2846a6;fill-opacity:1;fill-rule:nonzero;stroke:none"
           id="path1366"
           inkscape:connector-curvature="0" /></g><g
         id="g1368"
         transform="scale(1.47811)"><path
           d="m 16240.6,4710.41 c 0,0 3.1,35.51 27.3,32.47 24.3,-3.05 32.1,-16.64 22.8,-18.4 -9.4,-1.69 -23,8.12 -32.9,3.38 -9.8,-4.8 -17.2,-17.45 -17.2,-17.45"
           style="fill:#2846a6;fill-opacity:1;fill-rule:nonzero;stroke:none"
           id="path1370"
           inkscape:connector-curvature="0" /></g><g
         id="g1372"
         transform="scale(1.4734)"><path
           d="m 16251.7,4557.2 c -19.2,0 -34.4,3.12 -35.5,3.33 -1.7,0.33 -2.9,2.03 -2.5,3.73 0.4,1.76 2.1,2.85 3.8,2.51 0.4,-0.14 45.2,-9.23 77.7,4.07 1.7,0.61 3.4,-0.13 4.1,-1.76 0.7,-1.63 -0.1,-3.46 -1.7,-4.14 -14.8,-5.98 -31.5,-7.74 -45.9,-7.74"
           style="fill:#2846a6;fill-opacity:1;fill-rule:nonzero;stroke:none"
           id="path1374"
           inkscape:connector-curvature="0" /></g><g
         id="g1376"
         transform="scale(1.47109)"><path
           d="m 16280.1,4546.9 c -10.3,0 -18,2.1 -18.4,2.31 -1.7,0.47 -2.8,2.17 -2.3,3.87 0.5,1.7 2.1,2.72 4,2.24 0.1,-0.07 16.3,-4.48 32.2,0 1.7,0.48 3.4,-0.54 3.9,-2.24 0.5,-1.63 -0.5,-3.4 -2.2,-3.87 -6,-1.7 -11.9,-2.31 -17.2,-2.31"
           style="fill:#2846a6;fill-opacity:1;fill-rule:nonzero;stroke:none"
           id="path1378"
           inkscape:connector-curvature="0" /></g><g
         id="g1380"
         transform="scale(1.49299)"><path
           d="m 16292.7,4791.67 c -2.7,0 -5.2,1.6 -6.1,4.28 -78.4,219.1 -260.2,232.15 -262,232.22 -3.6,0.2 -6.3,3.28 -6.1,6.83 0.2,3.55 3.2,6.37 6.8,6.1 2,-0.07 48.8,-3.01 106.3,-34.23 52.9,-28.73 124.7,-87.87 167.2,-206.56 1.2,-3.42 -0.5,-7.1 -3.9,-8.31 -0.7,-0.27 -1.5,-0.33 -2.2,-0.33"
           style="fill:#0f1d5b;fill-opacity:1;fill-rule:nonzero;stroke:none"
           id="path1382"
           inkscape:connector-curvature="0" /></g><g
         id="g1384"
         transform="scale(1.50296)"><path
           d="m 16292.8,4789.83 c -2.7,0 -5.2,1.79 -6.1,4.52 -54.2,175.98 -191.5,245.45 -192.9,246.11 -3.2,1.6 -4.5,5.46 -2.9,8.65 1.6,3.2 5.4,4.46 8.6,2.93 1.4,-0.73 143.6,-72.72 199.5,-253.9 1,-3.39 -0.9,-6.99 -4.3,-8.05 -0.6,-0.2 -1.2,-0.26 -1.9,-0.26"
           style="fill:#0f1d5b;fill-opacity:1;fill-rule:nonzero;stroke:none"
           id="path1386"
           inkscape:connector-curvature="0" /></g><g
         id="g1388"
         transform="scale(1.4531)"><path
           d="m 16114.7,3114.02 c 0,-8.05 1.2,-24.15 3.3,-46.52 l 182,-77.49 v 37.65 l -181.9,111.21 c -2.2,-10.19 -3.4,-18.65 -3.4,-24.85"
           style="fill:#2a417f;fill-opacity:1;fill-rule:nonzero;stroke:none"
           id="path1390"
           inkscape:connector-curvature="0" /></g></g></g></svg>